<svg xmlns="http://www.w3.org/2000/svg" width="1200" height="470" viewBox="0 0 1200 470" role="img" aria-labelledby="title desc">
<title id="title">Arnav Uplenchwar — GitHub profile</title><desc id="desc">Dark retro arcade profile. Undergraduate at JIIT Noida. Python and C.</desc>
<defs>
<style>
.grid-flow { animation: travel 5.2s cubic-bezier(.55,0,1,.65) infinite; }
.grid-static { opacity: .22; }
@keyframes travel { 0% { transform: translateY(0px); opacity: 0; } 10% { opacity: .65; } 85% { opacity: .65; } 100% { transform: translateY(180px); opacity: 0; } }
.name { animation: glitch 7s linear infinite; }
.glitch-cyan { animation: split 7s linear infinite; opacity: 0; }
@keyframes glitch { 0%,84%,93%,100% { transform: translate(0,0); } 85%,89% { transform: translate(-3px,0); } 86%,90% { transform: translate(3px,1px); } 87%,91% { transform: translate(0,0); } 88%,92% { transform: translate(2px,0); } }
@keyframes split { 0%,84%,93%,100% { opacity: 0; transform: translate(0,0); } 85%,89% { opacity: .8; transform: translate(6px,-1px); } 86%,90% { opacity: .5; transform: translate(-5px,1px); } 87%,91% { opacity: 0; } 88%,92% { opacity: .7; transform: translate(4px,0); } }
@media (prefers-reduced-motion: reduce) { .grid-flow,.name,.glitch-cyan { animation: none; } .grid-flow,.glitch-cyan { opacity: 0; } .grid-static { opacity: 1; } }
</style>
<clipPath id="name-slices"><path d="M30 143H720V156H30ZM30 173H720V181H30ZM30 207H720V219H30ZM30 232H720V240H30Z"/></clipPath>
<linearGradient id="sky" x2="0" y2="1"><stop stop-color="#080c1b"/><stop offset="1" stop-color="#15112b"/></linearGradient>
<linearGradient id="sun" x2="0" y2="1"><stop stop-color="#ffcb75"/><stop offset=".45" stop-color="#fb67b2"/><stop offset="1" stop-color="#983cf5"/></linearGradient>
<linearGradient id="fade" x2="0" y2="1"><stop stop-color="#0a1023" stop-opacity="0"/><stop offset="1" stop-color="#080c19"/></linearGradient>
<pattern id="scan" width="4" height="4" patternUnits="userSpaceOnUse"><path d="M0 3.5H4" stroke="#000" stroke-opacity=".16"/></pattern>
<clipPath id="clip"><rect width="1200" height="470" rx="16"/></clipPath>
<mask id="sunmask"><rect width="1200" height="470" fill="white"/><rect x="920" y="145" width="170" height="3" fill="black"/><rect x="920" y="158" width="170" height="4" fill="black"/><rect x="920" y="175" width="170" height="5" fill="black"/><rect x="920" y="194" width="170" height="7" fill="black"/><rect x="920" y="216" width="170" height="10" fill="black"/></mask>
</defs>
<g clip-path="url(#clip)"><rect width="1200" height="470" fill="url(#sky)"/><rect x="1003" y="165" width="3" height="2" fill="#67e8f9"/><rect x="748" y="101" width="2" height="2" fill="#36416c"/><rect x="799" y="275" width="2" height="2" fill="#67e8f9"/><rect x="974" y="144" width="3" height="2" fill="#36416c"/><rect x="329" y="253" width="2" height="2" fill="#36416c"/><rect x="727" y="135" width="2" height="2" fill="#67e8f9"/><rect x="440" y="66" width="3" height="2" fill="#67e8f9"/><rect x="722" y="235" width="2" height="2" fill="#36416c"/><rect x="156" y="288" width="2" height="2" fill="#36416c"/><rect x="899" y="255" width="2" height="2" fill="#67e8f9"/><rect x="898" y="97" width="3" height="2" fill="#596394"/><rect x="366" y="54" width="3" height="2" fill="#36416c"/><rect x="1070" y="70" width="2" height="2" fill="#67e8f9"/><rect x="889" y="268" width="2" height="2" fill="#67e8f9"/><rect x="819" y="43" width="3" height="2" fill="#67e8f9"/><rect x="201" y="126" width="3" height="2" fill="#596394"/><rect x="761" y="213" width="3" height="2" fill="#596394"/><rect x="666" y="86" width="2" height="2" fill="#36416c"/><rect x="718" y="214" width="2" height="2" fill="#67e8f9"/><rect x="1056" y="119" width="2" height="2" fill="#596394"/><rect x="912" y="44" width="3" height="2" fill="#36416c"/><rect x="486" y="246" width="2" height="2" fill="#596394"/><rect x="450" y="80" width="3" height="2" fill="#36416c"/><rect x="396" y="67" width="3" height="2" fill="#596394"/><rect x="107" y="249" width="2" height="2" fill="#596394"/><rect x="736" y="54" width="3" height="2" fill="#596394"/><rect x="786" y="134" width="2" height="2" fill="#596394"/><rect x="965" y="271" width="3" height="2" fill="#596394"/><rect x="523" y="113" width="2" height="2" fill="#67e8f9"/><rect x="777" y="121" width="2" height="2" fill="#67e8f9"/><rect x="482" y="31" width="2" height="2" fill="#596394"/><rect x="399" y="151" width="2" height="2" fill="#67e8f9"/><rect x="113" y="154" width="3" height="2" fill="#36416c"/><rect x="771" y="285" width="2" height="2" fill="#36416c"/><rect x="692" y="171" width="3" height="2" fill="#36416c"/><rect x="502" y="297" width="3" height="2" fill="#596394"/><rect x="1035" y="209" width="2" height="2" fill="#67e8f9"/><rect x="943" y="111" width="2" height="2" fill="#596394"/><rect x="126" y="170" width="2" height="2" fill="#67e8f9"/><rect x="943" y="137" width="3" height="2" fill="#596394"/><rect x="1098" y="158" width="2" height="2" fill="#67e8f9"/><rect x="39" y="41" width="2" height="2" fill="#67e8f9"/><rect x="576" y="243" width="2" height="2" fill="#36416c"/><rect x="442" y="250" width="2" height="2" fill="#36416c"/><rect x="560" y="48" width="2" height="2" fill="#596394"/><rect x="222" y="235" width="2" height="2" fill="#67e8f9"/><rect x="743" y="216" width="3" height="2" fill="#67e8f9"/><rect x="820" y="110" width="2" height="2" fill="#67e8f9"/><rect x="350" y="43" width="2" height="2" fill="#36416c"/><rect x="882" y="130" width="2" height="2" fill="#36416c"/><rect x="755" y="124" width="2" height="2" fill="#596394"/><rect x="1141" y="279" width="3" height="2" fill="#67e8f9"/><rect x="287" y="136" width="3" height="2" fill="#67e8f9"/><rect x="839" y="153" width="2" height="2" fill="#596394"/><rect x="760" y="193" width="2" height="2" fill="#67e8f9"/><rect x="712" y="100" width="3" height="2" fill="#36416c"/><rect x="671" y="187" width="3" height="2" fill="#36416c"/><rect x="924" y="215" width="2" height="2" fill="#36416c"/><rect x="460" y="277" width="3" height="2" fill="#596394"/><rect x="1026" y="119" width="2" height="2" fill="#67e8f9"/><rect x="730" y="261" width="2" height="2" fill="#596394"/><rect x="230" y="142" width="2" height="2" fill="#596394"/><rect x="782" y="171" width="2" height="2" fill="#67e8f9"/><rect x="917" y="179" width="2" height="2" fill="#67e8f9"/><rect x="332" y="284" width="3" height="2" fill="#596394"/><rect x="364" y="284" width="2" height="2" fill="#596394"/><rect x="1057" y="155" width="2" height="2" fill="#596394"/><rect x="132" y="144" width="2" height="2" fill="#67e8f9"/><rect x="841" y="294" width="3" height="2" fill="#596394"/><rect x="139" y="82" width="3" height="2" fill="#67e8f9"/><rect x="671" y="207" width="3" height="2" fill="#36416c"/><rect x="691" y="283" width="2" height="2" fill="#67e8f9"/><rect x="661" y="115" width="2" height="2" fill="#596394"/><rect x="494" y="96" width="2" height="2" fill="#596394"/><rect x="126" y="247" width="2" height="2" fill="#596394"/><rect x="868" y="172" width="2" height="2" fill="#67e8f9"/><rect x="689" y="103" width="2" height="2" fill="#596394"/><rect x="98" y="221" width="2" height="2" fill="#596394"/><rect x="571" y="201" width="2" height="2" fill="#596394"/><rect x="1040" y="224" width="2" height="2" fill="#36416c"/>
<circle cx="1005" cy="153" r="78" fill="url(#sun)" mask="url(#sunmask)"/>
<g stroke="#7943bd" stroke-opacity=".4" fill="none"><path d="M600 292 L-1200 470"/><path d="M600 292 L-1080 470"/><path d="M600 292 L-960 470"/><path d="M600 292 L-840 470"/><path d="M600 292 L-720 470"/><path d="M600 292 L-600 470"/><path d="M600 292 L-480 470"/><path d="M600 292 L-360 470"/><path d="M600 292 L-240 470"/><path d="M600 292 L-120 470"/><path d="M600 292 L0 470"/><path d="M600 292 L120 470"/><path d="M600 292 L240 470"/><path d="M600 292 L360 470"/><path d="M600 292 L480 470"/><path d="M600 292 L600 470"/><path d="M600 292 L720 470"/><path d="M600 292 L840 470"/><path d="M600 292 L960 470"/><path d="M600 292 L1080 470"/><path d="M600 292 L1200 470"/><path d="M600 292 L1320 470"/><path d="M600 292 L1440 470"/><path d="M600 292 L1560 470"/><path d="M600 292 L1680 470"/><path d="M600 292 L1800 470"/><path d="M600 292 L1920 470"/><path d="M600 292 L2040 470"/><path d="M600 292 L2160 470"/><path d="M600 292 L2280 470"/><path d="M600 292 L2400 470"/><path class="grid-static" d="M0 300 H1200"/><path class="grid-static" d="M0 313 H1200"/><path class="grid-static" d="M0 334 H1200"/><path class="grid-static" d="M0 365 H1200"/><path class="grid-static" d="M0 409 H1200"/><path class="grid-static" d="M0 466 H1200"/></g>
<g transform="translate(0 292)" stroke="#af68ff" stroke-width="1" fill="none"><path class="grid-flow" style="animation-delay:-0.0s" d="M0 0H1200"/><path class="grid-flow" style="animation-delay:-0.65s" d="M0 0H1200"/><path class="grid-flow" style="animation-delay:-1.3s" d="M0 0H1200"/><path class="grid-flow" style="animation-delay:-1.9500000000000002s" d="M0 0H1200"/><path class="grid-flow" style="animation-delay:-2.6s" d="M0 0H1200"/><path class="grid-flow" style="animation-delay:-3.25s" d="M0 0H1200"/><path class="grid-flow" style="animation-delay:-3.9000000000000004s" d="M0 0H1200"/><path class="grid-flow" style="animation-delay:-4.55s" d="M0 0H1200"/></g>
<path d="M0 292H1200" stroke="#ca57ff" stroke-opacity=".65"/>
<rect y="294" width="1200" height="176" fill="url(#fade)"/>
<g font-family="'Courier New',monospace">
<rect x="38" y="30" width="9" height="9" fill="#79ffe1"/><text x="59" y="39" fill="#a5b5d5" font-size="12" letter-spacing="2">GITHUB / ARNAV UPLENCHWAR</text>
<text x="1160" y="39" fill="#7786ac" font-size="12" text-anchor="end" letter-spacing="2">JIIT · NOIDA</text>
<path d="M38 60H1162" stroke="#27314c"/>
<text x="56" y="113" fill="#63f5ed" font-size="13" letter-spacing="5">HELLO, WORLD_</text>
<g class="name">
<text x="55" y="184" fill="#080c1b" stroke="#8cb0cb" stroke-width=".6" font-size="64" font-weight="bold" letter-spacing="1">ARNAV</text>
<text x="58" y="248" fill="#ef4dba" font-size="64" font-weight="bold" letter-spacing="1">UPLENCHWAR</text>
<text x="54" y="245" fill="#eff8ff" font-size="64" font-weight="bold" letter-spacing="1">UPLENCHWAR</text>
</g>
<g clip-path="url(#name-slices)"><g class="glitch-cyan" fill="#63f5ed" font-size="64" font-weight="bold" letter-spacing="1"><text x="55" y="184">ARNAV</text><text x="54" y="245">UPLENCHWAR</text></g></g>
<text x="57" y="282" fill="#a9b6d4" font-size="16">Undergraduate @ JIIT Noida</text>
<rect x="56" y="318" width="309" height="34" rx="3" fill="#102b32" stroke="#27606b"/>
<text x="72" y="340" fill="#83f8e8" font-size="12" letter-spacing="2">LEARN. BUILD. IMPROVE.</text>
<g transform="translate(973 267)" fill="#81fbe6"><path d="M12 0h12v12H12zM72 0h12v12H72zM24 12h48v12H24zM12 24h72v12H12zM0 36h96v24H0zM0 60h12v24H0zM84 60h12v24H84zM24 60h12v12H24zM60 60h12v12H60zM12 84h24v12H12zM60 84h24v12H60z"/><path d="M24 36h12v12H24zM60 36h12v12H60z" fill="#080c1b"/></g>
<path d="M38 404H1162" stroke="#27314c"/>
<text x="56" y="437" fill="#7284ae" font-size="12" letter-spacing="2">[ PYTHON ]   [ C ]   [ PYCHARM ]   [ VS CODE ]</text>
<text x="1144" y="437" text-anchor="end" fill="#e887c4" font-size="12" letter-spacing="2">EXPLORE PROFILE ↓</text>
</g><rect width="1200" height="470" fill="url(#scan)" pointer-events="none"/>
<rect x=".5" y=".5" width="1199" height="469" rx="16" fill="none" stroke="#303a56"/></g></svg>